<?xml version="1.0" encoding="UTF-8" standalone="no"?>
<!-- Created with Inkscape (http://www.inkscape.org/) -->

<svg
   xmlns:dc="http://purl.org/dc/elements/1.1/"
   xmlns:cc="http://creativecommons.org/ns#"
   xmlns:rdf="http://www.w3.org/1999/02/22-rdf-syntax-ns#"
   xmlns:svg="http://www.w3.org/2000/svg"
   xmlns="http://www.w3.org/2000/svg"
   xmlns:sodipodi="http://sodipodi.sourceforge.net/DTD/sodipodi-0.dtd"
   xmlns:inkscape="http://www.inkscape.org/namespaces/inkscape"
   sodipodi:docname="turkish caydacira.svg"
   height="800"
   width="1000"
   inkscape:version="0.91 r13725"
   version="1.1"
   id="svg2">
  <metadata
     id="metadata8">
    <rdf:RDF>
      <cc:Work
         rdf:about="">
        <dc:format>image/svg+xml</dc:format>
        <dc:type
           rdf:resource="http://purl.org/dc/dcmitype/StillImage" />
        <dc:title></dc:title>
      </cc:Work>
    </rdf:RDF>
  </metadata>
  <defs
     id="defs6" />
  <sodipodi:namedview
     pagecolor="#ffffff"
     bordercolor="#666666"
     borderopacity="1"
     objecttolerance="10"
     gridtolerance="10"
     guidetolerance="10"
     inkscape:pageopacity="0"
     inkscape:pageshadow="2"
     inkscape:window-width="1366"
     inkscape:window-height="706"
     id="namedview4"
     showgrid="false"
     inkscape:zoom="0.64875"
     inkscape:cx="598.53674"
     inkscape:cy="401.22435"
     inkscape:window-x="-8"
     inkscape:window-y="-8"
     inkscape:window-maximized="1"
     inkscape:current-layer="svg2" />
  <g
     id="g8252"
     transform="matrix(1.465607,0,0,1.465607,-256.56103,-108.1737)">
    <path
       inkscape:export-ydpi="90"
       inkscape:export-xdpi="90"
       inkscape:export-filename="C:\Users\mberkancetin\Desktop\path3237.png"
       style="fill:#916f6f;stroke:none"
       d="m 549.84595,212.41517 c -0.22802,-3.36771 0.45708,-8.48989 -0.66524,-10.52953 -0.72344,-0.38335 -1.0726,-0.64918 -2.58243,0.0229 -1.3488,0.54213 0.0555,12.36503 0.36651,10.26902 z"
       id="path3280"
       inkscape:connector-curvature="0"
       sodipodi:nodetypes="ccccc" />
    <path
       inkscape:export-ydpi="90"
       inkscape:export-xdpi="90"
       inkscape:export-filename="C:\Users\mberkancetin\Desktop\path3237.png"
       sodipodi:nodetypes="ccccc"
       inkscape:connector-curvature="0"
       id="path3282"
       d="m 556.7279,211.11952 c 0.002,-4.17141 1.03487,-10.42902 0.0541,-13.03835 -0.6956,-0.53361 -1.02582,-0.89077 -2.57794,-0.18943 -1.38266,0.55477 -0.78753,15.25006 -0.33449,12.69198 z"
       style="fill:#916f6f;stroke:none" />
    <path
       inkscape:export-ydpi="90"
       inkscape:export-xdpi="90"
       inkscape:export-filename="C:\Users\mberkancetin\Desktop\path3237.png"
       style="fill:#916f6f;stroke:none"
       d="m 563.65732,210.7947 c 0.002,-3.37542 1.03485,-8.43896 0.0542,-10.55039 -0.69556,-0.43178 -1.02578,-0.7208 -2.57794,-0.15328 -1.38264,0.44892 -0.78754,12.34006 -0.33446,10.27011 z"
       id="path3284"
       inkscape:connector-curvature="0"
       sodipodi:nodetypes="ccccc" />
    <path
       inkscape:export-ydpi="90"
       inkscape:export-xdpi="90"
       inkscape:export-filename="C:\Users\mberkancetin\Desktop\path3237.png"
       style="fill:#550000;stroke:none"
       d="m 562.17868,199.63117 c 0,-0.25546 0,-0.51095 0,-0.76642 0,-0.051 0.0509,0.15327 0,0.15327 -0.0512,0 0,-0.10223 0,-0.15327 0,-0.10222 -0.0172,-0.20576 0,-0.30658 0.0427,-0.25701 0.10232,-0.51095 0.15325,-0.76643 1.30053,-0.65685 2.2775,-1.9987 1.68615,-4.1387 -0.77615,1.13565 -1.71416,1.68579 -3.06571,1.37957 -0.81092,1.87278 0.57098,2.10094 1.37956,2.75913"
       id="path3286"
       inkscape:connector-curvature="0"
       sodipodi:nodetypes="csssccccc" />
    <path
       inkscape:export-ydpi="90"
       inkscape:export-xdpi="90"
       inkscape:export-filename="C:\Users\mberkancetin\Desktop\path3237.png"
       style="fill:#803300;stroke:none"
       d="m 563.90683,193.13649 -1.08388,-1.78843 c -1.15928,1.19976 -1.82896,1.6417 -1.84261,3.41427 -0.17904,1.75803 3.72368,-0.45044 2.92649,-1.62584 z"
       id="path3288"
       inkscape:connector-curvature="0"
       sodipodi:nodetypes="cccc" />
    <path
       inkscape:export-ydpi="90"
       inkscape:export-xdpi="90"
       inkscape:export-filename="C:\Users\mberkancetin\Desktop\path3237.png"
       sodipodi:nodetypes="ccccc"
       inkscape:connector-curvature="0"
       id="path3290"
       d="m 563.65732,210.7947 c 0.002,-3.37542 1.03485,-8.43896 0.0542,-10.55039 -0.69556,-0.43178 -1.02578,-0.7208 -2.57794,-0.15328 -1.38264,0.44892 -0.78754,12.34006 -0.33446,10.27011 z"
       style="fill:#916f6f;stroke:none" />
    <path
       inkscape:export-ydpi="90"
       inkscape:export-xdpi="90"
       inkscape:export-filename="C:\Users\mberkancetin\Desktop\path3237.png"
       sodipodi:nodetypes="csssccccc"
       inkscape:connector-curvature="0"
       id="path3292"
       d="m 562.17868,199.63117 c 0,-0.25546 0,-0.51095 0,-0.76642 0,-0.051 0.0509,0.15327 0,0.15327 -0.0512,0 0,-0.10223 0,-0.15327 0,-0.10222 -0.0172,-0.20576 0,-0.30658 0.0427,-0.25701 0.10232,-0.51095 0.15325,-0.76643 1.30053,-0.65685 2.2775,-1.9987 1.68615,-4.1387 -0.77615,1.13565 -1.71416,1.68579 -3.06571,1.37957 -0.81092,1.87278 0.57098,2.10094 1.37956,2.75913"
       style="fill:#550000;stroke:none" />
    <path
       inkscape:export-ydpi="90"
       inkscape:export-xdpi="90"
       inkscape:export-filename="C:\Users\mberkancetin\Desktop\path3237.png"
       sodipodi:nodetypes="cccc"
       inkscape:connector-curvature="0"
       id="path3294"
       d="m 563.90683,193.13649 -1.08388,-1.78843 c -1.15928,1.19976 -1.82896,1.6417 -1.84261,3.41427 -0.17904,1.75803 3.72368,-0.45044 2.92649,-1.62584 z"
       style="fill:#803300;stroke:none" />
    <path
       inkscape:export-ydpi="90"
       inkscape:export-xdpi="90"
       inkscape:export-filename="C:\Users\mberkancetin\Desktop\path3237.png"
       style="fill:#550000;stroke:none"
       d="m 547.67018,201.68834 c 0,-0.25547 0,-0.51095 0,-0.76643 0,-0.051 0.0512,0.15328 0,0.15328 -0.0509,0 0,-0.10223 0,-0.15328 0,-0.10221 -0.0172,-0.20575 0,-0.30657 0.043,-0.25698 0.10232,-0.51095 0.15326,-0.76643 1.30052,-0.65685 2.27753,-1.9987 1.68612,-4.1387 -0.77611,1.13565 -1.71411,1.68578 -3.06568,1.37957 -0.81092,1.87279 0.57102,2.10093 1.37956,2.75913"
       id="path3296"
       inkscape:connector-curvature="0"
       sodipodi:nodetypes="csssccccc" />
    <path
       inkscape:export-ydpi="90"
       inkscape:export-xdpi="90"
       inkscape:export-filename="C:\Users\mberkancetin\Desktop\path3237.png"
       style="fill:#803300;stroke:none"
       d="m 549.2901,195.30193 -1.08385,-1.78842 c -1.15928,1.19974 -1.82898,1.64169 -1.84264,3.41425 -0.17903,1.75804 3.72371,-0.45043 2.92649,-1.62583 z"
       id="path3298"
       inkscape:connector-curvature="0"
       sodipodi:nodetypes="cccc" />
    <path
       inkscape:export-ydpi="90"
       inkscape:export-xdpi="90"
       inkscape:export-filename="C:\Users\mberkancetin\Desktop\path3237.png"
       sodipodi:nodetypes="csssccccc"
       inkscape:connector-curvature="0"
       id="path3300"
       d="m 555.68235,197.35745 c 0,-0.25545 0,-0.51094 0,-0.76642 0,-0.0511 0.0512,0.15329 0,0.15329 -0.0509,0 0,-0.10224 0,-0.15329 0,-0.1022 -0.0172,-0.20576 0,-0.30657 0.0427,-0.257 0.10231,-0.51095 0.15324,-0.76642 1.30056,-0.65685 2.27758,-1.99872 1.68619,-4.13871 -0.77615,1.13565 -1.71414,1.68578 -3.06572,1.37957 -0.81091,1.87279 0.57099,2.10094 1.37953,2.75914"
       style="fill:#550000;stroke:none" />
    <path
       inkscape:export-ydpi="90"
       inkscape:export-xdpi="90"
       inkscape:export-filename="C:\Users\mberkancetin\Desktop\path3237.png"
       sodipodi:nodetypes="cccc"
       inkscape:connector-curvature="0"
       id="path3302"
       d="m 557.30223,191.07933 -1.08384,-1.78843 c -1.15932,1.19976 -1.82902,1.6417 -1.84265,3.41427 -0.17903,1.75803 3.7237,-0.45044 2.92649,-1.62584 z"
       style="fill:#803300;stroke:none" />
    <path
       inkscape:export-ydpi="90"
       inkscape:export-xdpi="90"
       inkscape:export-filename="C:\Users\mberkancetin\Desktop\path3237.png"
       sodipodi:nodetypes="ccccc"
       inkscape:connector-curvature="0"
       id="path3227"
       d="m 461.84433,218.37013 c 0.22802,-3.36771 -0.45706,-8.48989 0.66526,-10.52954 0.72341,-0.38335 1.07257,-0.64918 2.58241,0.0229 1.3488,0.54214 -0.0555,12.36504 -0.36655,10.26902 z"
       style="fill:#916f6f;stroke:none" />
    <path
       inkscape:export-ydpi="90"
       inkscape:export-xdpi="90"
       inkscape:export-filename="C:\Users\mberkancetin\Desktop\path3237.png"
       style="fill:#916f6f;stroke:none"
       d="m 454.96237,217.07447 c -0.002,-4.1714 -1.03486,-10.42902 -0.0542,-13.03834 0.69561,-0.53362 1.02582,-0.89077 2.57797,-0.18943 1.3826,0.55476 0.78749,15.25005 0.33447,12.69197 z"
       id="path3233"
       inkscape:connector-curvature="0"
       sodipodi:nodetypes="ccccc" />
    <path
       inkscape:export-ydpi="90"
       inkscape:export-xdpi="90"
       inkscape:export-filename="C:\Users\mberkancetin\Desktop\path3237.png"
       sodipodi:nodetypes="ccccc"
       inkscape:connector-curvature="0"
       id="path3209"
       d="m 448.03295,216.74966 c -0.002,-3.37542 -1.03484,-8.43897 -0.0544,-10.5504 0.69562,-0.43178 1.02585,-0.72079 2.57796,-0.15327 1.38263,0.44891 0.78753,12.34006 0.33447,10.27011 z"
       style="fill:#916f6f;stroke:none" />
    <path
       inkscape:export-ydpi="90"
       inkscape:export-xdpi="90"
       inkscape:export-filename="C:\Users\mberkancetin\Desktop\path3237.png"
       style="fill:#af8d5f;fill-opacity:1;stroke:none"
       d="m 569.68911,212.02411 c -1.76704,4.95877 -5.95284,8.46631 -9.65697,12.26283 l -11.18985,0.61313 c -2.39543,-2.75751 -4.51559,-5.78448 -8.27738,-7.2044 -0.20138,-4.93103 16.91613,-12.84213 29.1242,-5.67156 z"
       id="path3207"
       inkscape:connector-curvature="0"
       sodipodi:nodetypes="ccccc" />
    <path
       inkscape:export-ydpi="90"
       inkscape:export-xdpi="90"
       inkscape:export-filename="C:\Users\mberkancetin\Desktop\path3237.png"
       sodipodi:nodetypes="ccccc"
       inkscape:connector-curvature="0"
       id="path3205"
       d="m 443.07364,218.4621 c 1.76705,4.95877 5.95282,8.4663 9.65698,12.26282 l 11.18984,0.61314 c 2.39543,-2.75751 4.51562,-5.78449 8.27738,-7.2044 0.20138,-4.93103 -16.91613,-12.84213 -29.1242,-5.67156 z"
       style="fill:#af8d5f;fill-opacity:1;stroke:none" />
    <path
       inkscape:export-ydpi="90"
       inkscape:export-xdpi="90"
       inkscape:export-filename="C:\Users\mberkancetin\Desktop\path3237.png"
       style="fill:#c89b7a;fill-opacity:1;stroke:none"
       d="m 551.45831,253.25784 c -1.1009,-9.96425 -2.54958,-16.36823 -0.15326,-20.84677 2.1504,-6.07505 8.18626,-6.31413 10.42338,-10.5767 2.99415,-4.32698 0.97492,-2.92436 1.37962,-4.29198 -1.17735,0.0576 -3.43226,3.34776 -5.36505,5.67156 2.54549,-6.34989 2.24995,-6.52269 1.99277,-7.81756 -1.36073,-1.1494 -3.91003,6.44666 -6.74457,7.97085 1.36725,-7.25698 0.25265,-6.57222 -0.30658,-7.66427 -1.13503,0.28439 -2.44188,2.63088 -3.98543,7.81755 -0.50609,-3.76886 -1.23118,-5.78555 -2.14597,-6.2847 -2.29756,0.0405 1.05729,7.77708 -3.83214,11.34311 -3.507,5.2888 1.93923,2.29594 -4.44528,24.37231 z"
       id="path3203"
       inkscape:connector-curvature="0"
       sodipodi:nodetypes="ccccccccccccc" />
    <path
       inkscape:export-ydpi="90"
       inkscape:export-xdpi="90"
       inkscape:export-filename="C:\Users\mberkancetin\Desktop\path3237.png"
       sodipodi:nodetypes="ccccccccccccc"
       inkscape:connector-curvature="0"
       id="path3201"
       d="m 461.77446,260.00245 c 1.10085,-9.96425 2.54961,-16.36829 0.15326,-20.84683 -2.1504,-6.07504 -8.18623,-6.31412 -10.42341,-10.57669 -2.99412,-4.32698 -0.97486,-2.92436 -1.37957,-4.29199 1.17736,0.0576 3.43224,3.34776 5.36503,5.67156 -2.54546,-6.34989 -2.24993,-6.52269 -1.99274,-7.81756 1.36073,-1.1494 3.91002,6.44667 6.74457,7.97085 -1.36728,-7.25698 -0.25266,-6.57222 0.30655,-7.66427 1.13502,0.28439 2.44188,2.63088 3.98541,7.81755 0.50611,-3.76886 1.2312,-5.78554 2.14602,-6.2847 2.29753,0.0405 -1.05736,7.77708 3.83212,11.34311 3.50699,5.28881 -1.93924,2.29594 4.4453,24.37236 z"
       style="fill:#c89b7a;fill-opacity:1;stroke:none" />
    <path
       inkscape:export-ydpi="90"
       inkscape:export-xdpi="90"
       inkscape:export-filename="C:\Users\mberkancetin\Desktop\path3237.png"
       sodipodi:nodetypes="cccccc"
       inkscape:connector-curvature="0"
       id="path3197"
       d="m 482.46798,297.40403 c 0.50576,14.70338 -17.17123,31.86039 -11.03654,45.98567 4.2241,-2.9186 7.5618,-6.83433 14.86868,-6.28474 l 45.37247,11.03656 c -2.15685,-22.40796 6.67569,-37.39331 -0.45987,-58.7083 z"
       style="fill:#c6aec4;fill-opacity:1;stroke:none" />
    <path
       inkscape:export-ydpi="90"
       inkscape:export-xdpi="90"
       inkscape:export-filename="C:\Users\mberkancetin\Desktop\path3237.png"
       sodipodi:nodetypes="ccccccc"
       inkscape:connector-curvature="0"
       id="path3195"
       d="m 488.29284,275.79082 c -1.47722,-9.66113 9.06409,-34.09422 12.41609,-44.29947 3.95233,-6.95006 18.4655,-7.7573 24.67896,2.146 2.53205,1.24123 1.50497,21.84612 3.52556,31.42353 l -4.75184,12.72266 -32.80307,3.52551 z"
       style="fill:#c6aec4;fill-opacity:1;stroke:none" />
    <path
       inkscape:export-ydpi="90"
       inkscape:export-xdpi="90"
       inkscape:export-filename="C:\Users\mberkancetin\Desktop\path3237.png"
       sodipodi:nodetypes="ccccccccccccccccccc"
       inkscape:connector-curvature="0"
       id="path3189"
       d="m 482.62126,469.85015 c -12.10638,-94.30701 8.31273,-140.40243 6.38539,-155.31084 -8.45239,-34.84832 -27.37168,-25.1741 -31.27021,-57.0221 l 2.81171,-7.7849 c 1.74884,8.69141 9.83111,6.29935 18.39427,3.06573 -0.0384,22.64821 9.37591,25.20087 19.62051,24.52563 -12.63428,19.68438 -4.74281,29.51637 -4.29198,42.9199 -1.33579,-25.84932 9.77829,-40.63205 23.91252,-52.73017 17.27656,6.90513 13.57686,-19.24096 19.62051,-26.36507 5.46124,9.20644 9.72701,10.04501 12.876,3.06574 13.26838,5.00235 -8.7818,36.12628 -11.03656,36.78845 -14.56178,9.50692 -15.23477,32.04112 -15.32852,43.53306 20.97512,63.07492 16.82168,87.01872 31.88334,148.38018 -3.28711,5.1953 -20.15729,-1.54146 -23.29937,0 -0.25781,2.04942 -1.66447,3.66784 2.45256,7.35776 -12.05198,-0.22371 -22.67377,-4.73823 -36.7885,1.22623 -3.56826,-1.39942 -6.6053,-2.97582 -6.74454,-5.51824 l -0.61316,-7.35768 z"
       style="fill:#602333;fill-opacity:1;stroke:none" />
    <path
       inkscape:export-ydpi="90"
       inkscape:export-xdpi="90"
       inkscape:export-filename="C:\Users\mberkancetin\Desktop\path3237.png"
       sodipodi:nodetypes="ccccc"
       inkscape:connector-curvature="0"
       id="path3191"
       d="m 503.27864,268.13534 c -20.55079,31.97173 -9.12933,34.99375 -9.53822,48.12469 1.25646,-34.68684 25.45521,-43.36581 24.76082,-50.93829 -5.40085,1.63474 -4.59856,7.8318 -13.27154,9.10015 -1.64779,-0.59941 -2.60678,-2.23188 -1.95106,-6.28655 z"
       style="fill:#a49b94;fill-opacity:1;stroke:none" />
    <path
       inkscape:export-ydpi="90"
       inkscape:export-xdpi="90"
       inkscape:export-filename="C:\Users\mberkancetin\Desktop\path3237.png"
       sodipodi:nodetypes="ccccccccc"
       inkscape:connector-curvature="0"
       id="path3193"
       d="m 503.06192,268.35212 c 2.16466,-9.27183 0.46125,-8.04444 0,-10.1886 -2.90994,-8.82358 -2.19799,-17.28717 5.6362,-22.11138 3.41905,-0.96975 7.01138,-1.07298 10.83891,0 7.51075,6.74731 3.34296,20.06536 1.73421,22.11138 -1.44516,1.69803 -2.89034,2.53827 -4.33553,2.60134 -1.54349,1.03476 -0.86755,3.17921 0,5.41946 -7.78635,11.14567 -8.57642,7.00844 -11.36229,8.48068 -3.05637,-0.83655 -3.46643,-3.05242 -2.5115,-6.31288 z"
       style="fill:#c89b7a;fill-opacity:1;stroke:none" />
    <path
       inkscape:export-ydpi="90"
       inkscape:export-xdpi="90"
       inkscape:export-filename="C:\Users\mberkancetin\Desktop\path3237.png"
       sodipodi:nodetypes="csssccccc"
       inkscape:connector-curvature="0"
       id="path3217"
       d="m 449.51162,205.58612 c 0,-0.25546 0,-0.51095 0,-0.76642 0,-0.0511 -0.0509,0.15328 0,0.15328 0.0509,0 0,-0.10223 0,-0.15328 0,-0.10221 0.0172,-0.20576 0,-0.30657 -0.0427,-0.25698 -0.10232,-0.51095 -0.15325,-0.76643 -1.30052,-0.65685 -2.2775,-1.99871 -1.68615,-4.1387 0.77615,1.13564 1.71414,1.68578 3.06571,1.37956 0.81092,1.87279 -0.57102,2.10094 -1.37956,2.75914"
       style="fill:#550000;stroke:none" />
    <path
       inkscape:export-ydpi="90"
       inkscape:export-xdpi="90"
       inkscape:export-filename="C:\Users\mberkancetin\Desktop\path3237.png"
       sodipodi:nodetypes="cccc"
       inkscape:connector-curvature="0"
       id="path3219"
       d="m 447.78342,199.09144 1.08388,-1.78842 c 1.15931,1.19975 1.82901,1.6417 1.84264,3.41426 0.17904,1.75804 -3.72369,-0.45043 -2.92652,-1.62584 z"
       style="fill:#803300;stroke:none" />
    <path
       inkscape:export-ydpi="90"
       inkscape:export-xdpi="90"
       inkscape:export-filename="C:\Users\mberkancetin\Desktop\path3237.png"
       style="fill:#916f6f;stroke:none"
       d="m 448.03295,216.74966 c -0.002,-3.37542 -1.03484,-8.43897 -0.0544,-10.5504 0.69562,-0.43178 1.02585,-0.72079 2.57796,-0.15327 1.38263,0.44891 0.78753,12.34006 0.33447,10.27011 z"
       id="path3221"
       inkscape:connector-curvature="0"
       sodipodi:nodetypes="ccccc" />
    <path
       inkscape:export-ydpi="90"
       inkscape:export-xdpi="90"
       inkscape:export-filename="C:\Users\mberkancetin\Desktop\path3237.png"
       style="fill:#550000;stroke:none"
       d="m 449.51162,205.58612 c 0,-0.25546 0,-0.51095 0,-0.76642 0,-0.0511 -0.0509,0.15328 0,0.15328 0.0509,0 0,-0.10223 0,-0.15328 0,-0.10221 0.0172,-0.20576 0,-0.30657 -0.0427,-0.25698 -0.10232,-0.51095 -0.15325,-0.76643 -1.30052,-0.65685 -2.2775,-1.99871 -1.68615,-4.1387 0.77615,1.13564 1.71414,1.68578 3.06571,1.37956 0.81092,1.87279 -0.57102,2.10094 -1.37956,2.75914"
       id="path3223"
       inkscape:connector-curvature="0"
       sodipodi:nodetypes="csssccccc" />
    <path
       inkscape:export-ydpi="90"
       inkscape:export-xdpi="90"
       inkscape:export-filename="C:\Users\mberkancetin\Desktop\path3237.png"
       style="fill:#803300;stroke:none"
       d="m 447.78342,199.09144 1.08388,-1.78842 c 1.15931,1.19975 1.82901,1.6417 1.84264,3.41426 0.17904,1.75804 -3.72369,-0.45043 -2.92652,-1.62584 z"
       id="path3225"
       inkscape:connector-curvature="0"
       sodipodi:nodetypes="cccc" />
    <path
       inkscape:export-ydpi="90"
       inkscape:export-xdpi="90"
       inkscape:export-filename="C:\Users\mberkancetin\Desktop\path3237.png"
       sodipodi:nodetypes="csssccccc"
       inkscape:connector-curvature="0"
       id="path3229"
       d="m 464.02007,207.6433 c 0,-0.2555 0,-0.51096 0,-0.76643 0,-0.0511 -0.0511,0.15328 0,0.15328 0.0509,0 0,-0.10224 0,-0.15328 0,-0.10221 0.0172,-0.20576 0,-0.30657 -0.043,-0.25701 -0.10232,-0.51095 -0.15326,-0.76643 -1.30056,-0.65685 -2.27751,-1.99871 -1.68612,-4.1387 0.77609,1.13564 1.71414,1.68578 3.06571,1.37957 0.81088,1.87278 -0.57102,2.10093 -1.37959,2.75913"
       style="fill:#550000;stroke:none" />
    <path
       inkscape:export-ydpi="90"
       inkscape:export-xdpi="90"
       inkscape:export-filename="C:\Users\mberkancetin\Desktop\path3237.png"
       sodipodi:nodetypes="cccc"
       inkscape:connector-curvature="0"
       id="path3231"
       d="m 462.40015,201.25689 1.08387,-1.78843 c 1.15931,1.19975 1.829,1.6417 1.84262,3.41426 0.17903,1.75803 -3.72368,-0.45043 -2.92649,-1.62583 z"
       style="fill:#803300;stroke:none" />
    <path
       inkscape:export-ydpi="90"
       inkscape:export-xdpi="90"
       inkscape:export-filename="C:\Users\mberkancetin\Desktop\path3237.png"
       style="fill:#550000;stroke:none"
       d="m 456.00793,203.31241 c 0,-0.25546 0,-0.51095 0,-0.76642 0,-0.051 -0.0509,0.15328 0,0.15328 0.0509,0 0,-0.10223 0,-0.15328 0,-0.10221 0.0172,-0.20576 0,-0.30657 -0.0429,-0.25698 -0.1022,-0.51096 -0.15326,-0.76643 -1.30056,-0.65685 -2.2775,-1.99871 -1.68615,-4.13871 0.77612,1.13565 1.71414,1.68579 3.06575,1.37958 0.81089,1.87279 -0.57105,2.10093 -1.3796,2.75913"
       id="path3235"
       inkscape:connector-curvature="0"
       sodipodi:nodetypes="csssccccc" />
    <path
       inkscape:export-ydpi="90"
       inkscape:export-xdpi="90"
       style="fill:#803300;stroke:none"
       d="m 454.17147,197.03429 1.08389,-1.78843 c 1.15931,1.19975 1.82897,1.64169 1.84264,3.41426 0.17903,1.75803 -3.72369,-0.45044 -2.92653,-1.62583 z"
       id="path3237"
       inkscape:connector-curvature="0"
       sodipodi:nodetypes="cccc" />
  </g>
  <g
     id="g8178"
     transform="matrix(1.465607,0,0,1.465607,-561.54284,-162.39269)">
    <path
       inkscape:export-ydpi="90"
       inkscape:export-xdpi="90"
       inkscape:export-filename="C:\Users\mberkancetin\Desktop\path3344.png"
       sodipodi:nodetypes="ccccc"
       inkscape:connector-curvature="0"
       id="path3354"
       d="m 863.51697,270.55222 c 0.8582,-3.77719 0.9862,-9.70658 2.6295,-11.81833 0.8938,-0.30507 1.3396,-0.54397 2.9433,0.48915 1.4432,0.85573 -2.2599,14.00822 -2.2423,11.57646 z"
       style="fill:#916f6f;stroke:none" />
    <path
       inkscape:export-ydpi="90"
       inkscape:export-xdpi="90"
       inkscape:export-filename="C:\Users\mberkancetin\Desktop\path3344.png"
       style="fill:#916f6f;stroke:none"
       d="m 848.04037,266.24538 c 0.598,-3.82683 0.3177,-9.75213 1.8119,-11.97051 0.8708,-0.36539 1.299,-0.6338 2.97,0.28605 1.4984,0.75597 -1.293,14.13057 -1.4425,11.7029 z"
       id="path3348"
       inkscape:connector-curvature="0"
       sodipodi:nodetypes="ccccc" />
    <path
       inkscape:export-ydpi="90"
       inkscape:export-xdpi="90"
       inkscape:export-filename="C:\Users\mberkancetin\Desktop\path3344.png"
       sodipodi:nodetypes="ccccc"
       inkscape:connector-curvature="0"
       id="path3350"
       d="m 848.56687,266.51757 c 0.598,-3.82684 0.3177,-9.75214 1.8119,-11.97052 0.8707,-0.36539 1.2989,-0.6338 2.97,0.28606 1.4984,0.75597 -1.293,14.13058 -1.4425,11.7029 z"
       style="fill:#916f6f;stroke:none" />
    <path
       inkscape:export-ydpi="90"
       inkscape:export-xdpi="90"
       inkscape:export-filename="C:\Users\mberkancetin\Desktop\path3344.png"
       style="fill:#916f6f;stroke:none"
       d="m 855.89197,267.85282 c 0.7394,-4.72946 0.6712,-12.00839 2.2539,-14.79134 0.8887,-0.48026 1.3291,-0.82619 2.9759,0.24778 1.4795,0.87628 -1.8098,17.42951 -1.8725,14.44847 z"
       id="path3352"
       inkscape:connector-curvature="0"
       sodipodi:nodetypes="ccccc" />
    <path
       inkscape:export-ydpi="90"
       inkscape:export-xdpi="90"
       inkscape:export-filename="C:\Users\mberkancetin\Desktop\path3344.png"
       sodipodi:nodetypes="csssccccc"
       inkscape:connector-curvature="0"
       id="path3356"
       d="m 851.71097,253.85373 c 0.045,-0.28959 0.091,-0.57908 0.1364,-0.86892 0.01,-0.0562 -0.086,0.16577 -0.029,0.17488 0.058,0.009 0.017,-0.11509 0.029,-0.17488 0.017,-0.11524 0.055,-0.22948 0.054,-0.34755 0,-0.29876 -0.026,-0.59742 -0.039,-0.8963 -1.3677,-0.97709 -2.2446,-2.67295 -1.1894,-4.9935 0.6841,1.42633 1.657,2.21772 3.2542,2.1121 0.5929,2.2684 -1.025,2.27999 -2.0648,2.8814"
       style="fill:#550000;stroke:none" />
    <path
       inkscape:export-ydpi="90"
       inkscape:export-xdpi="90"
       inkscape:export-filename="C:\Users\mberkancetin\Desktop\path3344.png"
       sodipodi:nodetypes="cccc"
       inkscape:connector-curvature="0"
       id="path3358"
       d="m 850.89207,246.18172 1.5547,-1.83349 c 1.1102,1.56716 1.7961,2.18815 1.4968,4.20021 -0.108,2.02476 -4.1702,-1.17671 -3.0515,-2.36672 z"
       style="fill:#803300;stroke:none" />
    <path
       inkscape:export-ydpi="90"
       inkscape:export-xdpi="90"
       inkscape:export-filename="C:\Users\mberkancetin\Desktop\path3344.png"
       style="fill:#550000;stroke:none"
       d="m 851.71097,253.85373 c 0.045,-0.28959 0.091,-0.57908 0.1364,-0.86892 0.01,-0.0562 -0.086,0.16577 -0.029,0.17488 0.058,0.009 0.017,-0.11509 0.029,-0.17488 0.017,-0.11524 0.055,-0.22948 0.054,-0.34755 0,-0.29876 -0.026,-0.59742 -0.039,-0.8963 -1.3677,-0.97709 -2.2446,-2.67295 -1.1894,-4.9935 0.6841,1.42633 1.657,2.21772 3.2542,2.1121 0.5929,2.2684 -1.025,2.27999 -2.0648,2.8814"
       id="path3360"
       inkscape:connector-curvature="0"
       sodipodi:nodetypes="csssccccc" />
    <path
       inkscape:export-ydpi="90"
       inkscape:export-xdpi="90"
       inkscape:export-filename="C:\Users\mberkancetin\Desktop\path3344.png"
       style="fill:#803300;stroke:none"
       d="m 850.89207,246.18172 1.5547,-1.83349 c 1.1102,1.56716 1.7961,2.18815 1.4968,4.20021 -0.108,2.02476 -4.1702,-1.17671 -3.0515,-2.36672 z"
       id="path3362"
       inkscape:connector-curvature="0"
       sodipodi:nodetypes="cccc" />
    <path
       inkscape:export-ydpi="90"
       inkscape:export-xdpi="90"
       inkscape:export-filename="C:\Users\mberkancetin\Desktop\path3344.png"
       sodipodi:nodetypes="csssccccc"
       inkscape:connector-curvature="0"
       id="path3364"
       d="m 867.90557,258.78045 c 0.045,-0.28959 0.091,-0.57918 0.1363,-0.86899 0.01,-0.0562 -0.086,0.1658 -0.029,0.17497 0.058,0.009 0.017,-0.1151 0.029,-0.17497 0.017,-0.11524 0.055,-0.22938 0.055,-0.34749 0,-0.29889 -0.026,-0.59741 -0.039,-0.89637 -1.3678,-0.97701 -2.2445,-2.67302 -1.1894,-4.9935 0.6841,1.42639 1.657,2.2178 3.2541,2.1124 0.593,2.26809 -1.0248,2.27954 -2.0647,2.8811"
       style="fill:#550000;stroke:none" />
    <path
       inkscape:export-ydpi="90"
       inkscape:export-xdpi="90"
       inkscape:export-filename="C:\Users\mberkancetin\Desktop\path3344.png"
       sodipodi:nodetypes="cccc"
       inkscape:connector-curvature="0"
       id="path3366"
       d="m 867.19087,251.25053 1.5548,-1.83354 c 1.1102,1.56721 1.7961,2.18814 1.4968,4.20019 -0.108,2.02478 -4.1703,-1.17656 -3.0516,-2.36665 z"
       style="fill:#803300;stroke:none" />
    <path
       inkscape:export-ydpi="90"
       inkscape:export-xdpi="90"
       inkscape:export-filename="C:\Users\mberkancetin\Desktop\path3344.png"
       style="fill:#550000;stroke:none"
       d="m 859.52977,252.43772 c 0.045,-0.28957 0.091,-0.57908 0.1363,-0.86897 0.01,-0.0562 -0.086,0.16585 -0.029,0.17493 0.058,0.009 0.017,-0.11524 0.029,-0.17493 0.017,-0.11524 0.056,-0.22943 0.055,-0.34756 0,-0.29875 -0.026,-0.59718 -0.039,-0.89614 -1.3679,-0.97717 -2.2446,-2.67313 -1.1895,-4.9935 0.6841,1.42624 1.6571,2.21755 3.2542,2.11238 0.5929,2.26802 -1.025,2.27954 -2.0647,2.88112"
       id="path3368"
       inkscape:connector-curvature="0"
       sodipodi:nodetypes="csssccccc" />
    <path
       inkscape:export-filename="C:\Users\mberkancetin\Desktop\path3344.png"
       inkscape:export-ydpi="90"
       inkscape:export-xdpi="90"
       style="fill:#803300;stroke:none"
       d="m 858.54877,244.99182 1.5548,-1.83347 c 1.1101,1.56723 1.796,2.18815 1.4967,4.20021 -0.108,2.02483 -4.1702,-1.17663 -3.0515,-2.36674 z"
       id="path3370"
       inkscape:connector-curvature="0"
       sodipodi:nodetypes="cccc" />
    <path
       inkscape:export-ydpi="90"
       inkscape:export-xdpi="90"
       inkscape:export-filename="C:\Users\mberkancetin\Desktop\path3344.png"
       sodipodi:nodetypes="ccccc"
       inkscape:connector-curvature="0"
       id="path3372"
       d="m 841.31289,264.46166 c 1.20299,6.28726 5.60208,11.29023 9.36478,16.5489 l 13.4084,2.85463 c 3.4136,-2.85654 6.5452,-6.08855 11.3585,-7.08075 1.1708,-5.88097 -18.0289,-18.61851 -34.13168,-12.32278 z"
       style="fill:#af8d5f;fill-opacity:1;stroke:none" />
    <path
       inkscape:export-ydpi="90"
       inkscape:export-xdpi="90"
       inkscape:export-filename="C:\Users\mberkancetin\Desktop\path3344.png"
       sodipodi:nodetypes="ccccccccccccccccc"
       inkscape:connector-curvature="0"
       id="path3340"
       d="m 852.81687,287.72515 c -2.6844,15.4083 -1.5599,18.53112 -0.831,25.65571 4.2914,15.33955 5.2283,13.54733 7.2622,17.3579 2.7604,6.7449 9.578,10.92674 15.4201,15.72481 l 31.6915,28.67149 c -0.7667,-8.41245 -2.9284,-16.38075 -6.8071,-23.80239 l 3.2973,-17.5058 c -2.4724,-5.74757 0.6911,-8.31181 -7.4187,-17.24381 0.5862,-2.29439 1.0989,-4.52129 -0.01,-5.26911 -0.6891,-0.0258 -1.4569,0.45086 -2.5384,2.9295 -4.6374,-3.09028 0.038,-7.24451 -14.5009,-9.2036 l -0.5431,4.35123 -4.2976,2.65391 c -1.8367,-0.353 -3.841,-0.15842 -4.9592,-2.85646 -0.7106,-5.2606 -0.5234,-7.70075 -0.5326,-10.75827 -1.1755,-7.09814 -1.7248,-5.41137 -2.5511,-7.60864 -4.1063,0.12318 -8.0218,2.05438 -12.6851,-3.09647 z"
       style="fill:#e3dedb;fill-opacity:1;stroke:none" />
    <path
       inkscape:export-ydpi="90"
       inkscape:export-xdpi="90"
       inkscape:export-filename="C:\Users\mberkancetin\Desktop\path3344.png"
       sodipodi:nodetypes="cccccccccc"
       inkscape:connector-curvature="0"
       id="path3338"
       d="m 895.43007,376.86337 c 4.296,-22.53763 8.0628,-30.299 10.9156,-36.14168 2.4255,-6.83976 -4.4172,-11.85849 -6.6289,-17.78715 1.4485,8.64024 2.3048,16.19579 -2.1868,13.9575 -9.6737,-26.21026 -12.8901,-17.98065 -19.1278,-27.33001 -1.9654,-1.28743 -5.7412,0.16185 -4.9158,2.78287 11.9284,18.39936 1.1316,28.08432 -3.8471,27.97744 -4.8687,0.45358 -8.2202,-2.2225 -10.912,-6.25958 0.912,15.75171 0.7986,23.92261 -0.9577,33.82182 13.3553,1.33899 25.9437,4.25997 37.6605,8.97879 z"
       style="fill:#414e70;fill-opacity:1;stroke:none" />
    <path
       inkscape:export-ydpi="90"
       inkscape:export-xdpi="90"
       inkscape:export-filename="C:\Users\mberkancetin\Desktop\path3344.png"
       sodipodi:nodetypes="cccccc"
       inkscape:connector-curvature="0"
       id="path3346"
       d="m 899.49477,296.84049 c 1.2071,-8.02559 8.517,-17.44864 1.1895,-23.51999 -5.0717,-2.86374 -8.9753,-7.22468 -20.6866,-1.57742 -11.1094,10.46778 -4.2243,17.86169 -4.2169,22.49118 -0.2352,5.60572 0.5403,8.98626 3.1216,8.39119 z"
       style="fill:#202128;fill-opacity:1;stroke:none" />
    <path
       sodipodi:nodetypes="ccccc"
       inkscape:connector-curvature="0"
       id="path3324"
       d="m 893.69587,367.4722 c 0.537,-3.43726 0.2853,-8.75937 1.6276,-10.75188 0.7821,-0.32817 1.1667,-0.56927 2.6676,0.25695 1.3459,0.67903 -1.1613,12.69207 -1.2955,10.51155 z"
       style="fill:#916f6f;stroke:none"
       inkscape:export-filename="C:\Users\mberkancetin\Desktop\path3344.png"
       inkscape:export-xdpi="90"
       inkscape:export-ydpi="90" />
    <path
       inkscape:export-ydpi="90"
       inkscape:export-xdpi="90"
       inkscape:export-filename="C:\Users\mberkancetin\Desktop\path3344.png"
       sodipodi:nodetypes="ccccc"
       inkscape:connector-curvature="0"
       id="path3308"
       d="m 851.50317,384.0875 c -3.1228,-6.29702 1.2548,-13.85328 6.8076,-21.60684 l 38.2308,8.55654 c 2.2215,4.91439 -4.5838,13.63639 -7.3309,24.94719 z"
       style="fill:#8d6a4a;fill-opacity:1;stroke:none" />
    <path
       style="fill:#916f6f;stroke:none"
       d="m 894.16877,367.71669 c 0.5369,-3.43729 0.2853,-8.7594 1.6274,-10.75191 0.7821,-0.32822 1.1666,-0.56931 2.6675,0.25695 1.3459,0.67901 -1.1612,12.69206 -1.2955,10.51151 z"
       id="path3316"
       inkscape:connector-curvature="0"
       sodipodi:nodetypes="ccccc"
       inkscape:export-filename="C:\Users\mberkancetin\Desktop\path3344.png"
       inkscape:export-xdpi="90"
       inkscape:export-ydpi="90" />
    <path
       sodipodi:nodetypes="ccccc"
       inkscape:connector-curvature="0"
       id="path3314"
       d="m 900.74817,368.91598 c 0.664,-4.24798 0.6028,-10.78591 2.0243,-13.28557 0.7983,-0.43137 1.1938,-0.74208 2.673,0.22258 1.329,0.78706 -1.6256,15.6552 -1.6819,12.97763 z"
       style="fill:#916f6f;stroke:none"
       inkscape:export-filename="C:\Users\mberkancetin\Desktop\path3344.png"
       inkscape:export-xdpi="90"
       inkscape:export-ydpi="90" />
    <path
       style="fill:#916f6f;stroke:none"
       d="m 907.59687,371.34061 c 0.771,-3.39267 0.8858,-8.71844 2.3619,-10.61522 0.8028,-0.27413 1.2031,-0.4886 2.6437,0.4391 1.2963,0.76861 -2.0299,12.58218 -2.0141,10.39798 z"
       id="path3312"
       inkscape:connector-curvature="0"
       sodipodi:nodetypes="ccccc"
       inkscape:export-filename="C:\Users\mberkancetin\Desktop\path3344.png"
       inkscape:export-xdpi="90"
       inkscape:export-ydpi="90" />
    <path
       style="fill:#af8d5f;fill-opacity:1;stroke:none"
       d="m 888.33837,368.41918 c 1.0205,5.33342 4.7522,9.5774 7.9441,14.03826 l 11.374,2.42153 c 2.8957,-2.42317 5.5523,-5.16484 9.6355,-6.00653 0.993,-4.98875 -15.2939,-15.79383 -28.9536,-10.45326 z"
       id="path3318"
       inkscape:connector-curvature="0"
       sodipodi:nodetypes="ccccc"
       inkscape:export-filename="C:\Users\mberkancetin\Desktop\path3344.png"
       inkscape:export-xdpi="90"
       inkscape:export-ydpi="90" />
    <path
       inkscape:export-ydpi="90"
       inkscape:export-xdpi="90"
       inkscape:export-filename="C:\Users\mberkancetin\Desktop\path3344.png"
       sodipodi:nodetypes="cccccccc"
       inkscape:connector-curvature="0"
       id="path3306"
       d="m 832.24229,511.12075 c 1.43392,4.26148 -6.00808,11.14226 5.54083,12.41864 10.18355,8.72566 17.97735,7.01435 26.23255,7.31843 3.5902,-3.10451 -2.1243,-5.54362 -5.5687,-8.1451 7.8606,2.23538 14.6249,3.68974 17.3938,2.29736 l 0.4781,-4.417 c -10.8664,-2.47365 -14.6932,-6.66546 -18.6234,-10.83201 z"
       style="fill:#0a0b0f;fill-opacity:1;stroke:none" />
    <path
       inkscape:export-ydpi="90"
       inkscape:export-xdpi="90"
       inkscape:export-filename="C:\Users\mberkancetin\Desktop\path3344.png"
       sodipodi:nodetypes="cccccccccc"
       inkscape:connector-curvature="0"
       id="path3304"
       d="m 832.34265,511.36827 c 0.67773,-3.93444 2.07605,-5.85427 1.89429,-8.39306 -7.09963,-5.82175 2.61315,-34.24217 5.3099,-63.47323 2.65546,-19.94927 2.52432,-42.22593 11.77483,-56.6672 l 38.8609,11.02608 c -5.1594,35.72445 0.9487,37.49275 -26.2219,107.97794 -1.6595,0.69637 -3.3528,1.30946 -6.2199,-0.97449 -0.5004,3.36986 -2.4114,7.02867 0.3674,8.74742 -0.987,0.79283 -2.0462,2.66319 -5.4433,1.46451 -6.224,7.35193 -13.04635,6.81223 -20.32222,0.29203 z"
       style="fill:#293b5f;fill-opacity:1;stroke:none" />
    <path
       inkscape:export-ydpi="90"
       inkscape:export-xdpi="90"
       inkscape:export-filename="C:\Users\mberkancetin\Desktop\path3344.png"
       sodipodi:nodetypes="cccccccccc"
       inkscape:connector-curvature="0"
       id="path3310"
       d="m 902.53747,387.37734 c -2.4285,-0.75049 -3.4815,-5.30355 -8.3231,-5.58195 -1.9293,-0.66595 -2.3634,-5.80057 -4.0745,-8.12488 0.5463,-1.24195 2.4146,2.08566 3.808,5.73018 1.4753,-1.09001 -1.9868,-4.25999 -1.3027,-5.33768 1.6675,-1.69835 5.0516,7.7361 7.2715,8.19792 2.8989,-0.34821 -2.5189,-5.28759 -0.4349,-5.41557 11.7242,10.61777 13.4454,-0.32741 15.5023,0.71754 0.7599,1.70153 -3.2866,4.15082 -4.1985,7.68431 -1.1685,1.84756 -5.4366,2.89882 -8.2481,2.13013 z"
       style="fill:#c89b7a;fill-opacity:1;stroke:none" />
    <path
       style="fill:#550000;stroke:none"
       d="m 896.99287,356.34202 c 0.041,-0.2601 0.081,-0.5201 0.1223,-0.78044 0.01,-0.0504 -0.077,0.14896 -0.026,0.15698 0.053,0.009 0.017,-0.10339 0.026,-0.15698 0.017,-0.10338 0.05,-0.20624 0.049,-0.31217 0,-0.26841 -0.023,-0.53662 -0.035,-0.80503 -1.2286,-0.87764 -2.0161,-2.40084 -1.0684,-4.48517 0.6145,1.28113 1.4884,1.99194 2.9229,1.89707 0.5326,2.03749 -0.9206,2.04791 -1.8545,2.5881"
       id="path3320"
       inkscape:connector-curvature="0"
       sodipodi:nodetypes="csssccccc"
       inkscape:export-filename="C:\Users\mberkancetin\Desktop\path3344.png"
       inkscape:export-xdpi="90"
       inkscape:export-ydpi="90" />
    <path
       style="fill:#803300;stroke:none"
       d="m 896.25727,349.45104 1.3965,-1.64684 c 0.9971,1.40762 1.6131,1.96541 1.3443,3.77264 -0.097,1.81864 -3.7457,-1.05695 -2.7408,-2.1258 z"
       id="path3322"
       inkscape:connector-curvature="0"
       sodipodi:nodetypes="cccc"
       inkscape:export-filename="C:\Users\mberkancetin\Desktop\path3344.png"
       inkscape:export-xdpi="90"
       inkscape:export-ydpi="90" />
    <path
       sodipodi:nodetypes="csssccccc"
       inkscape:connector-curvature="0"
       id="path3326"
       d="m 896.99287,356.34202 c 0.041,-0.2601 0.081,-0.5201 0.1223,-0.78044 0.01,-0.0504 -0.077,0.14896 -0.026,0.15698 0.053,0.009 0.017,-0.10339 0.026,-0.15698 0.017,-0.10338 0.05,-0.20624 0.049,-0.31217 0,-0.26841 -0.023,-0.53662 -0.035,-0.80503 -1.2286,-0.87764 -2.0161,-2.40084 -1.0684,-4.48517 0.6145,1.28113 1.4884,1.99194 2.9229,1.89707 0.5326,2.03749 -0.9206,2.04791 -1.8545,2.5881"
       style="fill:#550000;stroke:none"
       inkscape:export-filename="C:\Users\mberkancetin\Desktop\path3344.png"
       inkscape:export-xdpi="90"
       inkscape:export-ydpi="90" />
    <path
       sodipodi:nodetypes="cccc"
       inkscape:connector-curvature="0"
       id="path3328"
       d="m 896.25727,349.45104 1.3965,-1.64684 c 0.9971,1.40762 1.6131,1.96541 1.3443,3.77264 -0.097,1.81864 -3.7457,-1.05695 -2.7408,-2.1258 z"
       style="fill:#803300;stroke:none"
       inkscape:export-filename="C:\Users\mberkancetin\Desktop\path3344.png"
       inkscape:export-xdpi="90"
       inkscape:export-ydpi="90" />
    <path
       style="fill:#550000;stroke:none"
       d="m 911.53877,360.76721 c 0.041,-0.26009 0.082,-0.52023 0.1223,-0.78049 0.01,-0.05 -0.077,0.14895 -0.026,0.15725 0.053,0.009 0.017,-0.10339 0.026,-0.15725 0.017,-0.10339 0.049,-0.20625 0.049,-0.31212 0,-0.26842 -0.023,-0.53668 -0.035,-0.80514 -1.2285,-0.87752 -2.0161,-2.40091 -1.0683,-4.48514 0.6145,1.28119 1.4883,1.992 2.9228,1.89735 0.5326,2.0372 -0.9205,2.04745 -1.8545,2.58779"
       id="path3330"
       inkscape:connector-curvature="0"
       sodipodi:nodetypes="csssccccc"
       inkscape:export-filename="C:\Users\mberkancetin\Desktop\path3344.png"
       inkscape:export-xdpi="90"
       inkscape:export-ydpi="90" />
    <path
       style="fill:#803300;stroke:none"
       d="m 910.89687,354.00384 1.3965,-1.6469 c 0.9972,1.40769 1.6132,1.96539 1.3444,3.77265 -0.097,1.8186 -3.7457,-1.05684 -2.7409,-2.12575 z"
       id="path3332"
       inkscape:connector-curvature="0"
       sodipodi:nodetypes="cccc"
       inkscape:export-filename="C:\Users\mberkancetin\Desktop\path3344.png"
       inkscape:export-xdpi="90"
       inkscape:export-ydpi="90" />
    <path
       sodipodi:nodetypes="csssccccc"
       inkscape:connector-curvature="0"
       id="path3334"
       d="m 904.01567,355.07014 c 0.041,-0.2601 0.082,-0.5201 0.1222,-0.78047 0.01,-0.0501 -0.077,0.14896 -0.026,0.15726 0.052,0.009 0.017,-0.10338 0.026,-0.15726 0.017,-0.10339 0.05,-0.20624 0.049,-0.31218 0,-0.2684 -0.023,-0.53643 -0.035,-0.80493 -1.2285,-0.8777 -2.0161,-2.40096 -1.0684,-4.48515 0.6145,1.28106 1.4884,1.99186 2.923,1.89736 0.5326,2.03712 -0.9207,2.04748 -1.8546,2.58779"
       style="fill:#550000;stroke:none"
       inkscape:export-filename="C:\Users\mberkancetin\Desktop\path3344.png"
       inkscape:export-xdpi="90"
       inkscape:export-ydpi="90" />
    <path
       inkscape:export-filename="C:\Users\mberkancetin\Desktop\path3344.png"
       sodipodi:nodetypes="cccc"
       inkscape:connector-curvature="0"
       id="path3336"
       d="m 903.13447,348.38228 1.3965,-1.64682 c 0.9971,1.40767 1.6131,1.96539 1.3443,3.77263 -0.097,1.81873 -3.7456,-1.05687 -2.7408,-2.12581 z"
       style="fill:#803300;stroke:none"
       inkscape:export-xdpi="90"
       inkscape:export-ydpi="90" />
    <path
       inkscape:export-ydpi="90"
       inkscape:export-xdpi="90"
       inkscape:export-filename="C:\Users\mberkancetin\Desktop\path3344.png"
       sodipodi:nodetypes="ccccccccccccccc"
       inkscape:connector-curvature="0"
       id="path3342"
       d="m 852.97337,287.61102 c 1.7842,-4.36495 -3.435,-4.52266 -5.135,-7.04302 -1.6208,-0.87506 -2.3187,-6.51965 -2.3603,-8.82645 0.8846,-2.22095 2.6606,6.06897 4.8008,7.40655 2.073,-1.26371 1.4048,-8.91964 3.962,-9.36087 2.8202,1.01108 -0.7959,9.48989 1.3657,10.75013 2.2084,-0.95029 2.4066,-9.34418 5.4424,-9.96077 2.0886,2.20819 -1.9319,9.06644 0.1773,11.2571 1.9745,-1.17941 2.3942,-8.81515 5.1212,-10.56562 1.953,2.21167 -1.7132,7.92102 -0.038,9.97567 2.3767,-1.60687 5.8867,-9.1489 7.5892,-6.85172 -1.2037,4.15527 -5.1231,7.88504 -8.3525,11.72298 l -1.0257,5.66192 -9.9121,-0.44389 z"
       style="fill:#c89b7a;fill-opacity:1;stroke:none" />
    <path
       inkscape:export-ydpi="90"
       inkscape:export-xdpi="90"
       sodipodi:nodetypes="ccccccccc"
       inkscape:connector-curvature="0"
       id="path3344"
       d="m 879.34077,306.02133 c -0.7511,-1.20643 -1.2277,-4.43785 -1.0577,-9.17688 -5.3829,-1.29437 -2.9808,-8.57215 -0.277,-5.31148 -0.5552,-1.97796 0.6102,-5.82746 1.797,-9.70009 4.6824,-7.83632 16.2264,-5.23687 19.0385,-1.17623 2.9776,4.93534 1.2945,8.04104 1.4667,11.87504 0.1353,13.65641 -7.8771,11.46506 -5.0612,19.03167 l -4.7428,5.49547 z"
       style="fill:#c89b7a;fill-opacity:1;stroke:none" />
  </g>
  <g
     id="g8215"
     transform="matrix(1.465607,0,0,1.465607,46.16165,-196.27956)">
    <path
       style="fill:#916f6f;stroke:none"
       d="m 149.41097,290.5354 c -0.85827,-3.77718 -0.98623,-9.70653 -2.62952,-11.8183 -0.8938,-0.30507 -1.33955,-0.54398 -2.94334,0.48915 -1.44321,0.85573 2.25989,14.00821 2.24238,11.57644 z"
       id="path3374"
       inkscape:connector-curvature="0"
       sodipodi:nodetypes="ccccc"
       inkscape:export-filename="C:\Users\mberkancetin\Desktop\path3344.png"
       inkscape:export-xdpi="90"
       inkscape:export-ydpi="90" />
    <path
       sodipodi:nodetypes="ccccc"
       inkscape:connector-curvature="0"
       id="path3376"
       d="m 164.88754,286.2286 c -0.598,-3.82682 -0.31777,-9.75214 -1.81199,-11.97051 -0.87071,-0.3654 -1.2989,-0.63381 -2.96992,0.28604 -1.49838,0.75598 1.29296,14.13055 1.44243,11.70291 z"
       style="fill:#916f6f;stroke:none"
       inkscape:export-filename="C:\Users\mberkancetin\Desktop\path3344.png"
       inkscape:export-xdpi="90"
       inkscape:export-ydpi="90" />
    <path
       style="fill:#916f6f;stroke:none"
       d="m 164.36106,286.50078 c -0.598,-3.82684 -0.31773,-9.75213 -1.81196,-11.97051 -0.8707,-0.36539 -1.29892,-0.63381 -2.96992,0.28605 -1.49844,0.75598 1.29294,14.13058 1.44241,11.70291 z"
       id="path3378"
       inkscape:connector-curvature="0"
       sodipodi:nodetypes="ccccc"
       inkscape:export-filename="C:\Users\mberkancetin\Desktop\path3344.png"
       inkscape:export-xdpi="90"
       inkscape:export-ydpi="90" />
    <path
       sodipodi:nodetypes="ccccc"
       inkscape:connector-curvature="0"
       id="path3380"
       d="m 157.03593,287.83603 c -0.73942,-4.72946 -0.67116,-12.00839 -2.2539,-14.79134 -0.88869,-0.48026 -1.32908,-0.82619 -2.97591,0.24779 -1.47956,0.87628 1.80976,17.42949 1.87255,14.44845 z"
       style="fill:#916f6f;stroke:none"
       inkscape:export-filename="C:\Users\mberkancetin\Desktop\path3344.png"
       inkscape:export-xdpi="90"
       inkscape:export-ydpi="90" />
    <path
       style="fill:#550000;stroke:none"
       d="m 161.21689,273.83694 c -0.0453,-0.28959 -0.0908,-0.57908 -0.13635,-0.86891 -0.009,-0.0562 0.0856,0.16577 0.0286,0.17487 -0.0581,0.01 -0.0172,-0.11509 -0.0286,-0.17487 -0.0172,-0.11524 -0.0556,-0.22948 -0.0544,-0.34755 0.002,-0.29876 0.0258,-0.59742 0.0387,-0.89631 1.36778,-0.97707 2.24462,-2.67294 1.18947,-4.99349 -0.68417,1.42632 -1.65708,2.21773 -3.2542,2.11209 -0.5929,2.2684 1.02499,2.28 2.06473,2.8814"
       id="path3382"
       inkscape:connector-curvature="0"
       sodipodi:nodetypes="csssccccc"
       inkscape:export-filename="C:\Users\mberkancetin\Desktop\path3344.png"
       inkscape:export-xdpi="90"
       inkscape:export-ydpi="90" />
    <path
       style="fill:#803300;stroke:none"
       d="m 162.03586,266.16492 -1.55475,-1.83347 c -1.11018,1.56715 -1.79606,2.18815 -1.49675,4.20021 0.10799,2.02475 4.17022,-1.17672 3.0515,-2.36674 z"
       id="path3384"
       inkscape:connector-curvature="0"
       sodipodi:nodetypes="cccc"
       inkscape:export-filename="C:\Users\mberkancetin\Desktop\path3344.png"
       inkscape:export-xdpi="90"
       inkscape:export-ydpi="90" />
    <path
       sodipodi:nodetypes="csssccccc"
       inkscape:connector-curvature="0"
       id="path3386"
       d="m 161.21689,273.83694 c -0.0453,-0.28959 -0.0908,-0.57908 -0.13635,-0.86891 -0.009,-0.0562 0.0856,0.16577 0.0286,0.17487 -0.0581,0.01 -0.0172,-0.11509 -0.0286,-0.17487 -0.0172,-0.11524 -0.0556,-0.22948 -0.0544,-0.34755 0.002,-0.29876 0.0258,-0.59742 0.0387,-0.89631 1.36778,-0.97707 2.24462,-2.67294 1.18947,-4.99349 -0.68417,1.42632 -1.65708,2.21773 -3.2542,2.11209 -0.5929,2.2684 1.02499,2.28 2.06473,2.8814"
       style="fill:#550000;stroke:none"
       inkscape:export-filename="C:\Users\mberkancetin\Desktop\path3344.png"
       inkscape:export-xdpi="90"
       inkscape:export-ydpi="90" />
    <path
       sodipodi:nodetypes="cccc"
       inkscape:connector-curvature="0"
       id="path3388"
       d="m 162.03586,266.16492 -1.55475,-1.83347 c -1.11018,1.56715 -1.79606,2.18815 -1.49675,4.20021 0.10799,2.02475 4.17022,-1.17672 3.0515,-2.36674 z"
       style="fill:#803300;stroke:none"
       inkscape:export-filename="C:\Users\mberkancetin\Desktop\path3344.png"
       inkscape:export-xdpi="90"
       inkscape:export-ydpi="90" />
    <path
       style="fill:#550000;stroke:none"
       d="m 145.02234,278.76365 c -0.0453,-0.28958 -0.0908,-0.57918 -0.13636,-0.86897 -0.009,-0.0562 0.0859,0.1658 0.0286,0.17497 -0.0581,0.009 -0.0172,-0.11516 -0.0286,-0.17497 -0.0172,-0.11524 -0.0556,-0.2294 -0.0544,-0.34749 0.002,-0.2989 0.0258,-0.59742 0.039,-0.89638 1.36779,-0.97702 2.24457,-2.67302 1.18947,-4.9935 -0.68413,1.4264 -1.65707,2.2178 -3.25416,2.11241 -0.59293,2.26809 1.0249,2.27954 2.06469,2.88109"
       id="path3390"
       inkscape:connector-curvature="0"
       sodipodi:nodetypes="csssccccc"
       inkscape:export-filename="C:\Users\mberkancetin\Desktop\path3344.png"
       inkscape:export-xdpi="90"
       inkscape:export-ydpi="90" />
    <path
       style="fill:#803300;stroke:none"
       d="m 145.73698,271.23374 -1.55478,-1.83355 c -1.11015,1.56722 -1.79604,2.18815 -1.49678,4.2002 0.10799,2.02477 4.17025,-1.17655 3.05156,-2.36665 z"
       id="path3392"
       inkscape:connector-curvature="0"
       sodipodi:nodetypes="cccc"
       inkscape:export-filename="C:\Users\mberkancetin\Desktop\path3344.png"
       inkscape:export-xdpi="90"
       inkscape:export-ydpi="90" />
    <path
       sodipodi:nodetypes="csssccccc"
       inkscape:connector-curvature="0"
       id="path3394"
       d="m 153.39815,272.42094 c -0.0453,-0.28958 -0.0908,-0.57909 -0.13635,-0.86899 -0.009,-0.0562 0.0856,0.16586 0.0286,0.17494 -0.0582,0.01 -0.0172,-0.11523 -0.0286,-0.17494 -0.0172,-0.11523 -0.0556,-0.22942 -0.0544,-0.34754 0.002,-0.29876 0.0258,-0.59719 0.039,-0.89615 1.36779,-0.97717 2.24459,-2.67313 1.18947,-4.9935 -0.68414,1.42624 -1.6571,2.21755 -3.25417,2.11239 -0.59296,2.26801 1.02493,2.27953 2.0647,2.88111"
       style="fill:#550000;stroke:none"
       inkscape:export-filename="C:\Users\mberkancetin\Desktop\path3344.png"
       inkscape:export-xdpi="90"
       inkscape:export-ydpi="90" />
    <path
       sodipodi:nodetypes="cccc"
       inkscape:connector-curvature="0"
       id="path3396"
       d="m 154.37914,264.97504 -1.55476,-1.83347 c -1.11015,1.56723 -1.79603,2.18814 -1.49675,4.2002 0.108,2.02485 4.17022,-1.17663 3.05151,-2.36673 z"
       style="fill:#803300;stroke:none"
       inkscape:export-xdpi="90"
       inkscape:export-ydpi="90"
       inkscape:export-filename="C:\Users\mberkancetin\Desktop\path3344.png" />
    <path
       style="fill:#af8d5f;fill-opacity:1;stroke:none"
       d="m 171.61501,284.44488 c -1.20299,6.28722 -5.60209,11.29022 -9.36476,16.54887 l -13.40834,2.85466 c -3.41361,-2.85654 -6.54524,-6.08857 -11.35866,-7.08079 -1.17067,-5.88094 18.02901,-18.6185 34.13176,-12.32274 z"
       id="path3398"
       inkscape:connector-curvature="0"
       sodipodi:nodetypes="ccccc"
       inkscape:export-filename="C:\Users\mberkancetin\Desktop\path3344.png"
       inkscape:export-xdpi="90"
       inkscape:export-ydpi="90" />
    <path
       style="fill:#e3dedb;fill-opacity:1;stroke:none"
       d="m 160.11101,307.70836 c 2.68447,15.40831 1.55994,18.53111 0.83097,25.65569 -4.29141,15.33958 -5.22823,13.54735 -7.26216,17.35796 -2.76041,6.74486 -9.57795,10.9267 -15.4201,15.72477 l -31.69143,28.67151 c 0.7666,-8.41246 2.92835,-16.38077 6.80702,-23.8024 l -3.29722,-17.50579 c 2.47229,-5.74761 -0.69116,-8.31185 7.41865,-17.24381 -0.58626,-2.29441 -1.09892,-4.52133 0.009,-5.26912 0.68909,-0.0258 1.45693,0.45088 2.53844,2.9295 4.63736,-3.09028 -0.0375,-7.24451 14.50096,-9.2036 l 0.54305,4.35123 4.29755,2.6539 c 1.83668,-0.353 3.84102,-0.1584 4.95922,-2.85645 0.71064,-5.2606 0.52338,-7.70079 0.53261,-10.75827 1.17552,-7.09818 1.72482,-5.41139 2.55104,-7.60864 4.10639,0.12317 8.02187,2.05439 12.6851,-3.09648 z"
       id="path3400"
       inkscape:connector-curvature="0"
       sodipodi:nodetypes="ccccccccccccccccc"
       inkscape:export-filename="C:\Users\mberkancetin\Desktop\path3344.png"
       inkscape:export-xdpi="90"
       inkscape:export-ydpi="90" />
    <path
       style="fill:#414e70;fill-opacity:1;stroke:none"
       d="m 117.49783,396.84659 c -4.29597,-22.53763 -8.06278,-30.29903 -10.9156,-36.14168 -2.42551,-6.83976 4.41714,-11.85848 6.62891,-17.78715 -1.44849,8.64024 -2.30477,16.19579 2.18673,13.9575 9.67379,-26.21026 12.89017,-17.98066 19.12781,-27.33001 1.96541,-1.28743 5.74121,0.16185 4.91583,2.78287 -11.92835,18.39936 -1.13161,28.08429 3.8471,27.97744 4.86867,0.45358 8.22023,-2.22251 10.91198,-6.2596 -0.91198,15.75169 -0.79852,23.92261 0.95776,33.82184 -13.35529,1.339 -25.94369,4.25996 -37.66052,8.97879 z"
       id="path3402"
       inkscape:connector-curvature="0"
       sodipodi:nodetypes="cccccccccc"
       inkscape:export-filename="C:\Users\mberkancetin\Desktop\path3344.png"
       inkscape:export-xdpi="90"
       inkscape:export-ydpi="90" />
    <path
       style="fill:#202128;fill-opacity:1;stroke:none"
       d="m 113.4332,316.82372 c -1.20712,-8.02563 -8.51713,-17.44868 -1.18953,-23.52004 5.0716,-2.86373 8.97525,-7.22463 20.68658,-1.57741 11.10938,10.46781 4.22424,17.86168 4.21691,22.49118 0.23518,5.60572 -0.54028,8.9863 -3.1216,8.39121 z"
       id="path3404"
       inkscape:connector-curvature="0"
       sodipodi:nodetypes="cccccc"
       inkscape:export-filename="C:\Users\mberkancetin\Desktop\path3344.png"
       inkscape:export-xdpi="90"
       inkscape:export-ydpi="90" />
    <path
       inkscape:export-ydpi="90"
       inkscape:export-xdpi="90"
       inkscape:export-filename="C:\Users\mberkancetin\Desktop\path3344.png"
       style="fill:#916f6f;stroke:none"
       d="m 119.23199,387.45542 c -0.53693,-3.4373 -0.28531,-8.75938 -1.62763,-10.75188 -0.78205,-0.3282 -1.16667,-0.56928 -2.66754,0.25695 -1.34593,0.67901 1.16128,12.69206 1.29554,10.51151 z"
       id="path3406"
       inkscape:connector-curvature="0"
       sodipodi:nodetypes="ccccc" />
    <path
       style="fill:#8d6a4a;fill-opacity:1;stroke:none"
       d="m 161.42474,404.07073 c 3.12278,-6.29703 -1.25483,-13.8533 -6.80759,-21.60685 l -38.23082,8.55651 c -2.22153,4.91442 4.58383,13.6364 7.33092,24.94723 z"
       id="path3408"
       inkscape:connector-curvature="0"
       sodipodi:nodetypes="ccccc"
       inkscape:export-filename="C:\Users\mberkancetin\Desktop\path3344.png"
       inkscape:export-xdpi="90"
       inkscape:export-ydpi="90" />
    <path
       inkscape:export-ydpi="90"
       inkscape:export-xdpi="90"
       inkscape:export-filename="C:\Users\mberkancetin\Desktop\path3344.png"
       sodipodi:nodetypes="ccccc"
       inkscape:connector-curvature="0"
       id="path3410"
       d="m 118.75914,387.6999 c -0.53696,-3.43728 -0.28531,-8.7594 -1.6274,-10.7519 -0.78207,-0.32822 -1.16669,-0.56931 -2.66757,0.25666 -1.34587,0.67898 1.16128,12.69203 1.29554,10.51152 z"
       style="fill:#916f6f;stroke:none" />
    <path
       inkscape:export-ydpi="90"
       inkscape:export-xdpi="90"
       inkscape:export-filename="C:\Users\mberkancetin\Desktop\path3344.png"
       style="fill:#916f6f;stroke:none"
       d="m 112.17977,388.8992 c -0.664,-4.24799 -0.6029,-10.78592 -2.02437,-13.28557 -0.7982,-0.43139 -1.19377,-0.74208 -2.67296,0.22257 -1.32894,0.7871 1.62557,15.65523 1.68192,12.97767 z"
       id="path3412"
       inkscape:connector-curvature="0"
       sodipodi:nodetypes="ccccc" />
    <path
       inkscape:export-ydpi="90"
       inkscape:export-xdpi="90"
       inkscape:export-filename="C:\Users\mberkancetin\Desktop\path3344.png"
       sodipodi:nodetypes="ccccc"
       inkscape:connector-curvature="0"
       id="path3414"
       d="m 105.33101,391.3238 c -0.77102,-3.39263 -0.88586,-8.71841 -2.36187,-10.61518 -0.80278,-0.27414 -1.20316,-0.48862 -2.6437,0.43909 -1.296323,0.76862 2.02986,12.58216 2.01404,10.39798 z"
       style="fill:#916f6f;stroke:none" />
    <path
       inkscape:export-ydpi="90"
       inkscape:export-xdpi="90"
       inkscape:export-filename="C:\Users\mberkancetin\Desktop\path3344.png"
       sodipodi:nodetypes="ccccc"
       inkscape:connector-curvature="0"
       id="path3416"
       d="m 124.5895,388.40241 c -1.02049,5.33341 -4.75218,9.57737 -7.94401,14.03826 l -11.37412,2.42153 c -2.89573,-2.42317 -5.552243,-5.16488 -9.635423,-6.00653 -0.99297,-4.98876 15.293813,-15.79384 28.953553,-10.45326 z"
       style="fill:#af8d5f;fill-opacity:1;stroke:none" />
    <path
       style="fill:#0a0b0f;fill-opacity:1;stroke:none"
       d="m 180.68558,531.10397 c -1.4339,4.26144 6.00808,11.14226 -5.54081,12.41864 -10.18356,8.72562 -17.9773,7.01436 -26.23251,7.31842 -3.59021,-3.10449 2.12431,-5.54361 5.56865,-8.14509 -7.86054,2.23536 -14.6249,3.68974 -17.39373,2.29735 l -0.47815,-4.417 c 10.86638,-2.47364 14.69317,-6.66545 18.62336,-10.832 z"
       id="path3418"
       inkscape:connector-curvature="0"
       sodipodi:nodetypes="cccccccc"
       inkscape:export-filename="C:\Users\mberkancetin\Desktop\path3344.png"
       inkscape:export-xdpi="90"
       inkscape:export-ydpi="90" />
    <path
       style="fill:#293b5f;fill-opacity:1;stroke:none"
       d="m 180.58521,531.35149 c -0.67769,-3.93444 -2.07601,-5.8543 -1.89426,-8.39306 7.09961,-5.82179 -2.61317,-34.24217 -5.3099,-63.47327 -2.65545,-19.94926 -2.52431,-42.22588 -11.77478,-56.66715 l -38.86093,11.02608 c 5.15937,35.72444 -0.94868,37.49271 26.22195,107.97793 1.65945,0.69637 3.3527,1.30943 6.21987,-0.97449 0.50041,3.36986 2.4114,7.02868 -0.36746,8.74743 0.98706,0.79282 2.04625,2.66315 5.44336,1.46449 6.224,7.35195 13.04632,6.81224 20.32215,0.29204 z"
       id="path3420"
       inkscape:connector-curvature="0"
       sodipodi:nodetypes="cccccccccc"
       inkscape:export-filename="C:\Users\mberkancetin\Desktop\path3344.png"
       inkscape:export-xdpi="90"
       inkscape:export-ydpi="90" />
    <path
       style="fill:#c89b7a;fill-opacity:1;stroke:none"
       d="m 110.39038,407.36055 c 2.42849,-0.75049 3.48152,-5.30356 8.32316,-5.58197 1.92932,-0.66592 2.36338,-5.80054 4.07454,-8.12485 -0.54633,-1.24195 -2.41466,2.08566 -3.80803,5.73019 -1.47535,-1.09002 1.98679,-4.25999 1.30274,-5.33769 -1.66759,-1.69835 -5.05167,7.73611 -7.2716,8.19793 -2.89893,-0.34825 2.51899,-5.2876 0.43493,-5.41558 -11.72417,10.61774 -13.44541,-0.32742 -15.502233,0.71754 -0.76002,1.70149 3.286483,4.15082 4.198503,7.68432 1.16844,1.84756 5.43656,2.89881 8.24799,2.13011 z"
       id="path3422"
       inkscape:connector-curvature="0"
       sodipodi:nodetypes="cccccccccc"
       inkscape:export-filename="C:\Users\mberkancetin\Desktop\path3344.png"
       inkscape:export-xdpi="90"
       inkscape:export-ydpi="90" />
    <path
       inkscape:export-ydpi="90"
       inkscape:export-xdpi="90"
       inkscape:export-filename="C:\Users\mberkancetin\Desktop\path3344.png"
       sodipodi:nodetypes="csssccccc"
       inkscape:connector-curvature="0"
       id="path3424"
       d="m 115.93502,376.32524 c -0.0407,-0.26009 -0.0816,-0.52014 -0.12231,-0.78043 -0.009,-0.0504 0.0768,0.14867 0.0258,0.15697 -0.0521,0.009 -0.0172,-0.10339 -0.0258,-0.15697 -0.0172,-0.10339 -0.0496,-0.20626 -0.049,-0.31218 0.002,-0.26841 0.0229,-0.53662 0.0347,-0.80505 1.22854,-0.87764 2.01609,-2.40086 1.06838,-4.48518 -0.61453,1.28114 -1.48844,1.99197 -2.92291,1.8971 -0.5326,2.03748 0.92061,2.04788 1.85453,2.58808"
       style="fill:#550000;stroke:none" />
    <path
       inkscape:export-ydpi="90"
       inkscape:export-xdpi="90"
       inkscape:export-filename="C:\Users\mberkancetin\Desktop\path3344.png"
       sodipodi:nodetypes="cccc"
       inkscape:connector-curvature="0"
       id="path3426"
       d="m 116.67067,369.43426 -1.39649,-1.64684 c -0.99715,1.40762 -1.61319,1.9654 -1.34436,3.77265 0.0968,1.81863 3.74564,-1.05696 2.74085,-2.12581 z"
       style="fill:#803300;stroke:none" />
    <path
       inkscape:export-ydpi="90"
       inkscape:export-xdpi="90"
       inkscape:export-filename="C:\Users\mberkancetin\Desktop\path3344.png"
       style="fill:#550000;stroke:none"
       d="m 115.93502,376.32524 c -0.0407,-0.26009 -0.0816,-0.52014 -0.12231,-0.78043 -0.009,-0.0504 0.0768,0.14867 0.0258,0.15697 -0.0521,0.009 -0.0172,-0.10339 -0.0258,-0.15697 -0.0172,-0.10339 -0.0496,-0.20626 -0.049,-0.31218 0.002,-0.26841 0.0229,-0.53662 0.0347,-0.80505 1.22854,-0.87764 2.01609,-2.40086 1.06838,-4.48518 -0.61453,1.28114 -1.48844,1.99197 -2.92291,1.8971 -0.5326,2.03748 0.92061,2.04788 1.85453,2.58808"
       id="path3428"
       inkscape:connector-curvature="0"
       sodipodi:nodetypes="csssccccc" />
    <path
       inkscape:export-ydpi="90"
       inkscape:export-xdpi="90"
       inkscape:export-filename="C:\Users\mberkancetin\Desktop\path3344.png"
       style="fill:#803300;stroke:none"
       d="m 116.67067,369.43426 -1.39649,-1.64684 c -0.99715,1.40762 -1.61319,1.9654 -1.34436,3.77265 0.0968,1.81863 3.74564,-1.05696 2.74085,-2.12581 z"
       id="path3430"
       inkscape:connector-curvature="0"
       sodipodi:nodetypes="cccc" />
    <path
       inkscape:export-ydpi="90"
       inkscape:export-xdpi="90"
       inkscape:export-filename="C:\Users\mberkancetin\Desktop\path3344.png"
       sodipodi:nodetypes="csssccccc"
       inkscape:connector-curvature="0"
       id="path3432"
       d="m 101.38909,380.75043 c -0.0407,-0.2601 -0.0817,-0.52022 -0.12231,-0.78053 -0.009,-0.05 0.0771,0.14896 0.0258,0.15727 -0.0521,0.009 -0.0172,-0.10339 -0.0258,-0.15727 -0.0172,-0.10338 -0.0495,-0.20624 -0.049,-0.31212 0.002,-0.2684 0.0229,-0.53664 0.0347,-0.80511 1.22856,-0.87754 2.01608,-2.40093 1.06841,-4.48514 -0.6145,1.2812 -1.48842,1.992 -2.922883,1.89736 -0.53262,2.03717 0.920513,2.04745 1.854473,2.58778"
       style="fill:#550000;stroke:none" />
    <path
       inkscape:export-ydpi="90"
       inkscape:export-xdpi="90"
       inkscape:export-filename="C:\Users\mberkancetin\Desktop\path3344.png"
       sodipodi:nodetypes="cccc"
       inkscape:connector-curvature="0"
       id="path3434"
       d="m 102.03103,373.98706 -1.39651,-1.6469 c -0.997183,1.40769 -1.613233,1.96538 -1.344393,3.77263 0.0969,1.81862 3.745673,-1.05682 2.740903,-2.12573 z"
       style="fill:#803300;stroke:none" />
    <path
       inkscape:export-ydpi="90"
       inkscape:export-xdpi="90"
       inkscape:export-filename="C:\Users\mberkancetin\Desktop\path3344.png"
       style="fill:#550000;stroke:none"
       d="m 108.91228,375.05336 c -0.0407,-0.26009 -0.0817,-0.52011 -0.12232,-0.78049 -0.009,-0.05 0.0771,0.14895 0.0258,0.15725 -0.0521,0.009 -0.0172,-0.10339 -0.0258,-0.15725 -0.0172,-0.10339 -0.0496,-0.20625 -0.049,-0.31215 0.002,-0.26841 0.0229,-0.53645 0.0347,-0.80494 1.22851,-0.87769 2.01606,-2.40096 1.06838,-4.48518 -0.61456,1.28109 -1.48841,1.99187 -2.92291,1.89739 -0.5326,2.03711 0.9206,2.04749 1.85453,2.58779"
       id="path3436"
       inkscape:connector-curvature="0"
       sodipodi:nodetypes="csssccccc" />
    <path
       inkscape:export-ydpi="90"
       inkscape:export-xdpi="90"
       style="fill:#803300;stroke:none"
       d="m 109.79341,368.36548 -1.3965,-1.6468 c -0.99714,1.40767 -1.61316,1.96539 -1.34435,3.7726 0.0969,1.81872 3.74563,-1.05687 2.74085,-2.1258 z"
       id="path3438"
       inkscape:connector-curvature="0"
       sodipodi:nodetypes="cccc"
       inkscape:export-filename="C:\Users\mberkancetin\Desktop\path3344.png" />
    <path
       style="fill:#c89b7a;fill-opacity:1;stroke:none"
       d="m 159.95452,307.59425 c -1.7842,-4.36496 3.43504,-4.52267 5.13505,-7.04306 1.62073,-0.87506 2.31867,-6.51966 2.36023,-8.82644 -0.88454,-2.22096 -2.66055,6.06898 -4.80081,7.40656 -2.07301,-1.26371 -1.4048,-8.91966 -3.96202,-9.36088 -2.82014,1.01106 0.79599,9.48991 -1.36567,10.75013 -2.20833,-0.95028 -2.40661,-9.34417 -5.44233,-9.96076 -2.08859,2.20819 1.9319,9.06645 -0.17731,11.2571 -1.97453,-1.17944 -2.39424,-8.81517 -5.12116,-10.56562 -1.95301,2.21167 1.71313,7.92101 0.0378,9.97568 -2.37676,-1.60686 -5.88676,-9.14892 -7.58926,-6.85174 1.2037,4.15526 5.12313,7.88506 8.35243,11.72299 l 1.02574,5.66192 9.91211,-0.44389 z"
       id="path3440"
       inkscape:connector-curvature="0"
       sodipodi:nodetypes="ccccccccccccccc"
       inkscape:export-filename="C:\Users\mberkancetin\Desktop\path3344.png"
       inkscape:export-xdpi="90"
       inkscape:export-ydpi="90" />
    <path
       style="fill:#c89b7a;fill-opacity:1;stroke:none"
       d="m 133.58714,326.00451 c 0.75111,-1.20639 1.22769,-4.43785 1.05765,-9.17684 5.383,-1.2944 2.98086,-8.57215 0.277,-5.31148 0.55514,-1.97796 -0.61026,-5.82749 -1.79698,-9.70011 -4.6824,-7.83634 -16.22641,-5.23689 -19.0385,-1.17622 -2.97765,4.93534 -1.29454,8.04105 -1.46673,11.87505 -0.1352,13.6564 7.8771,11.46507 5.06123,19.03168 l 4.74273,5.49546 z"
       id="path3442"
       inkscape:connector-curvature="0"
       sodipodi:nodetypes="ccccccccc"
       inkscape:export-xdpi="90"
       inkscape:export-ydpi="90" />
  </g>
</svg>
